<?xml version="1.0" encoding="UTF-8"?>
<svg xmlns="http://www.w3.org/2000/svg" xmlns:xlink="http://www.w3.org/1999/xlink" width="319pt" height="384pt" viewBox="0 0 319 384" version="1.1">
<defs>
<clipPath id="clip1">
  <path d="M 0 0.46875 L 319 0.46875 L 319 383 L 0 383 Z M 0 0.46875 "/>
</clipPath>
</defs>
<g id="surface1">
<g clip-path="url(#clip1)" clip-rule="nonzero">
<path style=" stroke:none;fill-rule:nonzero;fill:rgb(0%,0%,0%);fill-opacity:1;" d="M 269.621094 280.273438 L 248.691406 280.273438 L 248.789063 268.035156 C 248.789063 262.710938 253.171875 258.136719 258.589844 258.136719 L 259.898438 258.136719 C 265.507813 258.136719 269.988281 262.710938 269.988281 268.035156 Z M 190.898438 254.121094 C 185.574219 254.121094 181.273438 257.769531 181.273438 262.152344 L 181.273438 321.363281 C 181.273438 325.667969 185.574219 329.398438 190.898438 329.398438 C 196.222656 329.398438 200.605469 325.667969 200.605469 321.363281 L 200.605469 262.152344 C 200.605469 257.769531 196.222656 254.121094 190.898438 254.121094 Z M 318.746094 220.964844 L 318.746094 333.6875 C 318.746094 360.765625 295.394531 383 266.625 383 L 52.199219 383 C 23.429688 383 0 360.765625 0 333.6875 L 0 220.964844 C 0 193.886719 23.445313 171.84375 52.199219 171.84375 L 266.625 171.84375 C 295.394531 171.84375 318.746094 193.886719 318.746094 220.964844 Z M 66.496094 346.023438 L 66.496094 227.230469 L 93.113281 227.230469 L 93.113281 209.585938 L 22.234375 209.492188 L 22.234375 226.863281 L 44.375 226.863281 L 44.375 346.039063 L 66.496094 346.039063 Z M 146.160156 244.96875 L 124.019531 244.96875 L 124.019531 308.296875 C 124.019531 317.636719 124.578125 322.113281 124.019531 323.804688 C 122.15625 328.664063 114.121094 333.894531 110.949219 324.363281 C 110.394531 322.496094 110.855469 317.636719 110.855469 308.851563 L 110.855469 244.96875 L 88.714844 244.96875 L 88.8125 307.914063 C 88.8125 317.445313 88.621094 324.726563 88.90625 327.898438 C 89.371094 333.6875 89.195313 340.410156 94.519531 344.332031 C 104.511719 351.425781 123.652344 343.214844 128.417969 332.9375 L 128.417969 346.007813 L 146.160156 346.007813 Z M 217.039063 317.621094 L 217.039063 264.671875 C 217.039063 244.683594 202.007813 232.539063 181.542969 248.796875 L 181.640625 209.570313 L 159.40625 209.570313 L 159.40625 345.273438 L 177.527344 344.90625 L 179.296875 336.507813 C 202.472656 357.785156 217.039063 343.21875 217.039063 317.621094 Z M 286.4375 310.527344 L 269.8125 310.71875 L 269.8125 322.304688 C 269.8125 327.167969 265.699219 331.277344 260.664063 331.277344 L 257.492188 331.277344 C 252.457031 331.277344 248.4375 327.167969 248.4375 322.304688 L 248.4375 297.648438 L 286.453125 297.648438 L 286.453125 283.367188 C 286.453125 273.085938 286.085938 262.4375 285.335938 256.558594 C 282.53125 237.605469 256.007813 234.707031 242.558594 244.316406 C 238.253906 247.3125 235.082031 251.3125 233.21875 256.828125 C 231.351563 262.246094 230.410156 269.722656 230.410156 279.238281 L 230.410156 310.71875 C 230.492188 363.011719 293.894531 355.539063 286.4375 310.527344 Z M 201.164063 139.613281 C 202.375 142.421875 204.160156 144.652344 206.488281 146.339844 C 208.910156 148.015625 212.003906 148.953125 215.636719 148.953125 C 218.808594 148.953125 221.613281 148.015625 224.132813 146.148438 C 226.554688 144.378906 228.609375 141.765625 230.394531 138.210938 L 229.835938 146.992188 L 254.589844 146.992188 L 254.589844 41.84375 L 235.160156 41.84375 L 235.160156 123.660156 C 235.160156 128.136719 231.511719 131.691406 226.9375 131.691406 C 222.554688 131.691406 218.808594 128.042969 218.808594 123.660156 L 218.808594 41.84375 L 198.628906 41.84375 L 198.628906 112.726563 C 198.628906 121.699219 198.820313 127.757813 198.996094 130.847656 C 199.300781 133.828125 200.144531 136.824219 201.164063 139.613281 Z M 126.363281 80.226563 C 126.363281 70.136719 127.207031 62.296875 128.882813 56.605469 C 130.476563 50.996094 133.550781 46.421875 137.933594 42.976563 C 142.320313 39.535156 147.832031 37.84375 154.65625 37.84375 C 160.34375 37.84375 165.300781 39.054688 169.414063 41.113281 C 173.429688 43.4375 176.601563 46.242188 178.753906 49.796875 C 181.175781 53.351563 182.675781 56.988281 183.425781 60.734375 C 184.269531 64.460938 184.636719 70.265625 184.636719 77.820313 L 184.636719 104.53125 C 184.636719 114.238281 184.347656 121.445313 183.425781 126.019531 C 182.769531 130.59375 181.175781 134.800781 178.660156 138.722656 C 176.238281 142.640625 173.046875 145.542969 169.128906 147.40625 C 165.300781 149.464844 160.824219 150.308594 155.675781 150.308594 C 150.066406 150.308594 145.394531 149.464844 141.472656 147.886719 C 137.457031 146.210938 134.476563 143.871094 132.324219 140.601563 C 130.171875 137.429688 128.597656 133.414063 127.75 128.933594 C 126.8125 124.265625 126.347656 117.347656 126.347656 108.101563 L 126.347656 80.226563 Z M 145.695313 121.96875 C 145.695313 127.945313 150.175781 132.710938 155.5 132.710938 C 160.917969 132.710938 165.300781 127.945313 165.300781 121.96875 L 165.300781 66.023438 C 165.300781 60.144531 160.824219 55.28125 155.5 55.28125 C 150.078125 55.28125 145.695313 60.144531 145.695313 66.023438 Z M 77.238281 150.261719 L 100.589844 150.261719 L 100.6875 69.660156 L 128.148438 0.644531 L 102.742188 0.644531 L 88.078125 51.824219 L 73.222656 0.46875 L 48.007813 0.46875 L 77.238281 69.675781 Z M 77.238281 150.261719 "/>
</g>
</g>
</svg>
